:SAMPLES-PER-SECOND 30
:FULLY-SPECIFIED
:DEGREES
108
root  12.9115773 39.9140005 -10.82951103 -1.138350129 -54.25839996 3.572080135
lfemur  -32.55550003 6.159529686 -0.091997765
ltibia  -1.491570742e-006 -8.364404493e-007 63.43529892
lfoot  5.521815751e-007 -4.751119137 -6.913740158
ltoes  -4.250644065 -19.5611806 -102.515957
rfemur  -16.45380402 13.71350002 2.830860138
rtibia  -8.727266732e-007 2.533748784e-007 46.90320206
rfoot  -2.316020982e-006 -15.93000031 -18.12290001
rtoes  5.373923086 19.29304026 -105.8922705
lowerback  8.958049774 1.052289963 -2.797699928
upperback  5.012040138 1.051599979 -2.320729971
thorax  0.1658789963 0.4524120092 -0.9148629904
rclavicle  0 -9.442270133e-015 7.951389973e-016
rhumerus  18.71879768 8.008130074 -74.87680054
rradius  -7.782816926e-012 0.001642658608 137.9720001
rwrist  0.002739921212 0.003270594636 -29.70499992
rthumb  -92.93752616 -24.25625642 -97.11982154
rhand  -7.920061211e-032 -33.2840004 9.303460121
rfingers  -90 -7.125020027 -90
lclavicle  0 -9.442270133e-015 7.951389973e-016
lhumerus  11.65389919 6.338860035 68.18460083
lradius  1.032090038e-011 -0.0007052608998 138.6699982
lwrist  1.816137865e-011 1.409039812e-011 21.3708992
lthumb  89.89689403 5.08795885 91.16245106
lhand  -1.496451383e-031 -27.76390076 20.11240005
lfingers  90 7.125020027 -90
lowerneck  5.065219879 7.302899837 -10.55280018
upperneck  38.65039825 9.723609924 -0.6740285158
head  11.58300018 2.359139919 2.144150019
109
root  13.09320044 40.00866807 -10.68604462 -1.05309999 -54.83670044 3.815109968
lfemur  -32.65779495 5.993119717 0.2749219537
ltibia  -1.491570742e-006 -8.364404493e-007 62.71508789
lfoot  5.521815751e-007 -4.467202187 -4.922348976
ltoes  -4.250644065 -19.5611806 -102.515957
rfemur  -17.31469154 12.90779972 2.650967598
rtibia  -8.727266732e-007 2.533748784e-007 47.38438034
rfoot  -2.316020982e-006 -15.147892 -20.69549751
rtoes  5.373923086 19.29304026 -105.8922705
lowerback  8.850310326 1.387789965 -2.826809883
upperback  5.192840099 1.488899946 -2.894750118
thorax  0.427053988 0.6701930165 -1.52583003
rclavicle  0 -9.442270133e-015 7.951389973e-016
rhumerus  19.60810089 6.329859734 -75.14150238
rradius  -7.782816058e-012 0.001642658608 138.0690002
rwrist  0.002739921212 0.003270594636 -30.87750053
rthumb  -92.93752616 -24.25625642 -97.11982154
rhand  -7.920061211e-032 -33.2840004 9.303460121
rfingers  -90 -7.125020027 -90
lclavicle  0 -9.442270133e-015 7.951389973e-016
lhumerus  13.33559895 6.247879982 67.62049866
lradius  1.032089952e-011 -0.002090657596 138.4949951
lwrist  1.816137865e-011 1.409039812e-011 21.9633007
lthumb  89.89689403 5.08795885 91.16245106
lhand  -1.496451383e-031 -27.76390076 20.11240005
lfingers  90 7.125020027 -90
lowerneck  4.912950039 7.057499886 -9.579990387
upperneck  38.87530136 9.46918869 -0.9943543673
head  11.77810001 2.322979927 1.862100005
110
root  13.26964371 40.06955605 -10.5521112 -1.052280068 -55.38470078 4.125699997
lfemur  -32.73039627 5.785560608 0.650385499
ltibia  -1.491570742e-006 -8.364404493e-007 61.95519638
lfoot  5.521815751e-007 -4.065977097 -3.160890102
ltoes  -4.250644065 -19.5611806 -102.515957
rfemur  -18.21039581 11.94120026 2.494189501
rtibia  -8.727266732e-007 2.533748784e-007 48.16369247
rfoot  -2.316020982e-006 -14.99949741 -23.19560051
rtoes  5.373923086 19.29304026 -105.8922705
lowerback  8.911319733 1.595960021 -3.187350035
upperback  5.229430199 1.724110007 -3.281330109
thorax  0.4366410077 0.7811229825 -1.745609999
rclavicle  0 -9.442270133e-015 7.951389973e-016
rhumerus  20.49830246 5.146999359 -75.271698
rradius  -7.782816926e-012 0.001642658608 138.279007
rwrist  0.002739921212 0.003270594636 -31.77479935
rthumb  -92.93752616 -24.25625642 -97.11982154
rhand  -7.920061211e-032 -33.2840004 9.303460121
rfingers  -90 -7.125020027 -90
lclavicle  0 -9.442270133e-015 7.951389973e-016
lhumerus  14.59490108 6.582159996 67.12830353
lradius  1.032090125e-011 -0.004029684234 138.3919983
lwrist  1.816137865e-011 1.409039812e-011 22.47380066
lthumb  89.89689403 5.08795885 91.16245106
lhand  -1.496451383e-031 -27.76390076 20.11240005
lfingers  90 7.125020027 -90
lowerneck  5.189909935 7.019070148 -9.014849663
upperneck  38.40589905 9.4706707 -1.466580272
head  11.58010006 2.385750055 1.572080016
111
root  13.43877747 40.10066536 -10.41431127 -1.237119913 -55.92950058 4.556479931
lfemur  -32.62580109 5.490320206 0.9976942539
ltibia  -1.491570742e-006 -8.364404493e-007 61.07770157
lfoot  5.521815751e-007 -3.228729963 -1.570779681
ltoes  -4.250644065 -19.5611806 -102.515957
rfemur  -19.04090118 11.05910015 2.261359692
rtibia  -8.727266732e-007 2.533748784e-007 49.27590179
rfoot  -2.316020982e-006 -16.00130081 -24.61930084
rtoes  5.373923086 19.29304026 -105.8922705
lowerback  9.025939941 1.496230006 -4.00744009
upperback  5.35311985 1.520210028 -3.306619883
thorax  0.4832809865 0.656201005 -1.297950029
rclavicle  0 -9.442270133e-015 7.951389973e-016
rhumerus  22.01069832 5.099960327 -75.15550232
rradius  -7.782817793e-012 0.001642658608 138.4190063
rwrist  0.002739921212 0.003270594636 -33.03689957
rthumb  -92.93752616 -24.25625642 -97.11982154
rhand  -7.920061211e-032 -33.2840004 9.303460121
rfingers  -90 -7.125020027 -90
lclavicle  0 -9.442270133e-015 7.951389973e-016
lhumerus  15.48390102 7.977920055 66.82520294
lradius  1.032090038e-011 -0.006395841949 138.4170074
lwrist  1.816137865e-011 1.409039812e-011 22.89690018
lthumb  89.89689403 5.08795885 91.16245106
lhand  -1.496451383e-031 -27.76390076 20.11240005
lfingers  90 7.125020027 -90
lowerneck  4.634669781 7.375830173 -10.12779999
upperneck  38.24020004 10.03239918 -1.256400466
head  11.53409958 2.5104599 1.885540128
112
root  13.59528819 40.1011099 -10.2669776 -1.617539883 -56.49959946 5.121150017
lfemur  -32.2796936 5.167799473 1.299215436
ltibia  -1.491570742e-006 -8.364404493e-007 60.0729866
lfoot  5.521815751e-007 -2.201853037 -0.4654445648
ltoes  -4.250644065 -19.5611806 -102.515957
rfemur  -19.82129288 10.31019974 1.95390892
rtibia  -8.727266732e-007 2.533748784e-007 50.69328308
rfoot  -2.316020982e-006 -16.82339478 -24.70739555
rtoes  5.373923086 19.29304026 -105.8922705
lowerback  8.944129944 1.853569984 -4.203639984
upperback  5.527289867 1.972110033 -3.940279961
thorax  0.7259389758 0.8757190108 -1.880460024
rclavicle  0 -9.442270133e-015 7.951389973e-016
rhumerus  22.81749916 3.763169289 -75.43689728
rradius  -7.782816926e-012 0.001642658608 138.7160034
rwrist  0.002739921212 0.003270594636 -34.08349991
rthumb  -92.93752616 -24.25625642 -97.11982154
rhand  -7.920061211e-032 -33.2840004 9.303460121
rfingers  -90 -7.125020027 -90
lclavicle  0 -9.442270133e-015 7.951389973e-016
lhumerus  17.19339943 7.803929806 66.25939941
lradius  1.032090038e-011 -0.009062629193 138.2980042
lwrist  1.816137865e-011 1.409039812e-011 23.40579987
lthumb  89.89689403 5.08795885 91.16245106
lhand  -1.496451383e-031 -27.76390076 20.11240005
lfingers  90 7.125020027 -90
lowerneck  4.525169849 7.163899899 -10.00839996
upperneck  37.9618988 9.581609726 -0.6676125526
head  11.40110016 2.409450054 2.057889938
113
root  13.74559928 40.07022287 -10.12200033 -2.02534008 -56.97489929 5.699389935
lfemur  -31.8717041 4.716179848 1.625622869
ltibia  -1.491570742e-006 -8.364404493e-007 58.92490768
lfoot  5.521815751e-007 -1.03207171 0.01226993278
ltoes  -4.250644065 -19.5611806 -102.515957
rfemur  -20.61970139 9.583040237 1.655490041
rtibia  -8.727266732e-007 2.533748784e-007 52.36940384
rfoot  -2.316020982e-006 -16.98030281 -23.76399994
rtoes  5.373923086 19.29304026 -105.8922705
lowerback  8.828989983 2.029040098 -4.723629951
upperback  5.649409771 2.167390108 -4.307670116
thorax  0.916294992 0.9571620226 -1.983880043
rclavicle  0 -9.442270133e-015 7.951389973e-016
rhumerus  23.77300072 3.220189571 -75.49919891
rradius  -7.782816926e-012 0.001642658608 138.9340057
rwrist  0.002739921212 0.003270594636 -34.89080048
rthumb  -92.93752616 -24.25625642 -97.11982154
rhand  -7.920061211e-032 -33.2840004 9.303460121
rfingers  -90 -7.125020027 -90
lclavicle  0 -9.442270133e-015 7.951389973e-016
lhumerus  18.31299782 8.124210358 65.91880035
lradius  1.032089865e-011 -0.01190354768 138.1670074
lwrist  1.816137865e-011 1.409039812e-011 23.44630051
lthumb  89.89689403 5.08795885 91.16245106
lhand  -1.496451383e-031 -27.76390076 20.11240005
lfingers  90 7.125020027 -90
lowerneck  4.780690193 7.13421011 -9.836409569
upperneck  36.9654007 9.553919792 -0.9612080455
head  10.9630003 2.467080116 1.889040112
114
root  13.89906726 40.01466646 -9.969244229 -2.280170202 -57.35739899 6.044350147
lfemur  -31.43909454 4.021990299 2.092994928
ltibia  -1.491570742e-006 -8.364404493e-007 57.68668747
lfoot  5.521815751e-007 0.1325916946 0.07867661864
ltoes  -4.250644065 -19.5611806 -102.515957
rfemur  -21.32798958 8.903909683 1.524167895
rtibia  -8.727266732e-007 2.533748784e-007 54.20628357
rfoot  -2.316020982e-006 -16.99249458 -22.21899796
rtoes  5.373923086 19.29304026 -105.8922705
lowerback  8.912329674 1.83257997 -5.438000202
upperback  5.593329906 1.84465003 -4.173399925
thorax  0.7882570028 0.7770640254 -1.423589945
rclavicle  0 -9.442270133e-015 7.951389973e-016
rhumerus  24.91940117 3.892129898 -75.20700073
rradius  -7.782816926e-012 0.001642658608 139.0970001
rwrist  0.002739921212 0.003270594636 -35.53079987
rthumb  -92.93752616 -24.25625642 -97.11982154
rhand  -7.920061211e-032 -33.2840004 9.303460121
rfingers  -90 -7.125020027 -90
lclavicle  0 -9.442270133e-015 7.951389973e-016
lhumerus  18.3090992 9.399339676 66.01439667
lradius  1.032089865e-011 -0.01479209773 138.1430054
lwrist  1.816137865e-011 1.409039812e-011 23.23579979
lthumb  89.89689403 5.08795885 91.16245106
lhand  -1.496451383e-031 -27.76390076 20.11240005
lfingers  90 7.125020027 -90
lowerneck  4.598090172 7.588779926 -11.08430004
upperneck  36.40259933 10.2446003 -0.9861349463
head  10.69559956 2.652590036 2.112689972
